<?xml version="1.0" encoding="UTF-8"?>
<svg width="320px" height="320px" viewBox="0 0 320 320" version="1.1" xmlns="http://www.w3.org/2000/svg" xmlns:xlink="http://www.w3.org/1999/xlink">
    <title>编组 4@2x</title>
    <g id="----Messaging（信息）" stroke="none" stroke-width="1" fill="none" fill-rule="evenodd">
        <g id="Message-Page（信息提示页）" transform="translate(-1076.000000, -415.000000)">
            <g id="编组-4" transform="translate(1076.000000, 415.000000)">
                <rect id="矩形" x="0" y="0" width="320" height="320"></rect>
                <g id="undraw_page_not_found_re_e9o6" transform="translate(0.000000, 63.200000)" fill-rule="nonzero">
                    <path d="M161.934194,59.6589779 C159.081647,54.934156 155.701494,49.8894554 150.407894,48.3466618 C144.277552,46.5600183 137.980134,50.1092537 132.638483,53.6116189 C116.663871,64.0860614 101.280005,75.4373845 86.557377,87.613574 L86.5734858,87.7969801 C98.035626,87.0053665 109.497751,86.2137603 120.959862,85.4221615 C129.241261,84.8502196 137.80717,84.1993919 145.125635,80.2760024 C147.902744,78.7872271 150.609821,76.7985232 153.756745,76.6599461 C157.666502,76.4877929 161.075563,79.2223837 163.75461,82.0794042 C179.602043,98.979603 184.187968,124.824041 201.967213,139.672131 C190.756174,111.983059 177.36986,85.228115 161.934194,59.6589779 L161.934194,59.6589779 Z" id="路径" fill="#F2F2F2"></path>
                    <path d="M259.486075,202.445364 C257.73262,200.235051 257.016143,199.717385 255.286505,197.486628 C241.203202,179.303476 227.966034,160.506146 215.575,141.09464 C207.158537,127.91108 199.15942,114.474353 191.57765,100.784456 C187.968118,94.2761171 184.457538,87.7166933 181.045909,81.1061848 C178.398562,75.9805716 175.810298,70.8243052 173.281117,65.6373858 C172.557811,64.1558812 171.854996,62.6675817 171.155678,61.1758717 C169.507836,57.66798 167.890641,54.1430621 166.154175,50.6828348 C164.175498,46.7390163 161.766881,42.6044621 158.133347,39.9548157 C156.479812,38.6994816 154.502498,37.9399275 152.432526,37.7649356 C149.474666,37.5742185 146.745367,38.7934724 144.179814,40.1251035 C125.409019,49.8961196 107.835792,62.1465351 91.9410617,76.0861688 C76.0055572,90.0570942 61.7618317,105.840893 49.5002534,123.115803 C49.1251248,123.650502 48.2380496,123.139643 48.6166952,122.601555 C50.1076158,120.496797 51.6280791,118.414761 53.178085,116.355446 C72.4513382,90.7668794 96.0832367,68.7620999 122.993559,51.3469525 C127.520965,48.4180353 132.133496,45.626473 136.831151,42.9722656 C139.198801,41.6338173 141.576782,40.3123952 143.995573,39.0727271 C146.366721,37.85688 148.884464,36.763634 151.59328,36.7213115 C160.811509,36.5797378 165.584459,47.0012448 168.862991,54.0136438 C169.893312,56.2205463 170.936125,58.4206453 171.99143,60.6139408 C175.979604,68.9409225 180.121313,77.1918541 184.416559,85.3667357 C187.067401,90.4140352 189.776271,95.431806 192.543167,100.420048 C201.154033,115.953555 210.306297,131.172603 219.999959,146.077193 C232.841381,165.820173 245.580352,183.2609 260.209381,201.723324 C260.612015,202.23421 259.892211,202.963041 259.486075,202.445364 Z" id="路径" fill="#E4E4E4"></path>
                    <path d="M91.5972057,70.5981554 C91.0598319,70.0035715 90.5258002,69.4089876 89.9849201,68.8144037 C85.7197008,64.1324687 81.1430899,59.5049079 75.2859768,56.8207782 C72.4932806,55.5005525 69.4446439,54.7991476 66.3515454,54.7652186 C63.154386,54.7754219 60.0290999,55.6078238 57.0749724,56.7732272 C55.6783032,57.3270388 54.3123915,57.9555904 52.9672039,58.6249142 C51.4301337,59.3927794 49.9204752,60.2116202 48.4178369,61.0372397 C45.5970903,62.5865548 42.8129477,64.2038187 40.0654089,65.8890315 C34.5985807,69.242485 29.3029647,72.8518924 24.1785608,76.7172536 C21.5221158,78.7218599 18.920497,80.792148 16.3737043,82.9281181 C14.0049172,84.9123228 11.6840457,86.9497638 9.41108979,89.0404413 C8.9250296,89.4855268 8.19928319,88.7652348 8.68534337,88.3201456 C9.28439279,87.7663302 9.89029422,87.2159172 10.4961994,86.6723052 C12.2077652,85.1365747 13.9467466,83.6302903 15.7131435,82.1534519 C18.9342048,79.4557401 22.2386715,76.8622254 25.6265436,74.3729078 C30.8948013,70.4996104 36.3444129,66.8890689 41.9753783,63.5412834 C44.7892765,61.8696601 47.6418933,60.2682466 50.5332287,58.7370426 C51.4062319,58.2749678 52.2894291,57.823085 53.1828204,57.3949778 C55.2100114,56.3800585 57.3163509,55.5290278 59.4813641,54.8501581 C62.548208,53.8654372 65.7930039,53.5490588 68.9942813,53.9226171 C72.0852279,54.3688665 75.0632355,55.3914038 77.7712582,56.9363053 C83.5220661,60.126677 87.9823457,65.0600023 92.3229297,69.8744574 C92.761205,70.3637027 92.0388043,71.087397 91.5972057,70.5981554 Z" id="路径" fill="#E4E4E4"></path>
                    <path d="M208.488215,119.468534 L222.205237,114.451911 L229.015785,111.96113 C231.233866,111.149926 233.446617,110.226434 235.739585,109.645575 C237.732228,109.076432 239.847955,109.103386 241.825449,109.72311 C243.588972,110.375795 245.203243,111.376385 246.572282,112.66539 C247.97091,113.953253 249.272263,115.342889 250.465671,116.822903 C251.948455,118.604722 253.409335,120.405217 254.876765,122.199684 C260.933146,129.605798 266.949924,137.044055 272.927099,144.514455 C278.904139,151.984734 284.841219,159.48675 290.738339,167.020503 C296.649874,174.572671 302.520752,182.156418 308.350976,189.771744 C309.065185,190.704648 309.778785,191.63802 310.491775,192.571862 C310.885691,193.087755 311.773911,192.579154 311.374431,192.055973 C305.501196,184.364055 299.58702,176.703634 293.631904,169.07471 C287.662149,161.427542 281.651145,153.812807 275.598892,146.230506 C269.54676,138.648358 263.453729,131.099089 257.319799,123.582697 C255.791649,121.710139 254.26098,119.839642 252.727793,117.971207 C251.434491,116.395111 250.155772,114.802023 248.737241,113.33506 C246.133418,110.642347 242.880278,108.262711 238.986228,108.198146 C236.696731,108.160185 234.480992,108.886633 232.353819,109.656108 C230.06062,110.485646 227.772926,111.330685 225.482663,112.168288 L211.66972,117.220007 L208.216485,118.482934 C207.603664,118.707043 207.868852,119.695241 208.48823,119.468568 L208.488215,119.468534 Z" id="路径" fill="#E4E4E4"></path>
                    <path d="M73.3731258,62.6378638 C66.4266962,59.0170707 57.5308219,59.726225 51.147541,64.2498629 C63.3231675,66.3802791 75.3655711,69.2308165 87.2131148,72.7868852 C82.2933091,69.8628273 78.4448415,65.2814891 73.3731258,62.6378638 Z" id="路径" fill="#F2F2F2"></path>
                    <path d="M50.4280162,64.2622951 L49.1803279,65.5737705 C49.6023603,65.1147483 50.0410981,64.6843856 50.4918033,64.2771232 C50.4705156,64.2723726 50.4493039,64.2670456 50.4280162,64.2622951 Z" id="路径" fill="#F2F2F2"></path>
                    <path d="M246.069272,119.465049 C244.717071,117.81204 243.255117,116.081249 241.232565,115.409836 L239.344262,115.484628 C253.7186,140.99293 273.132196,163.281957 296.393443,180.983607 C279.618719,160.477431 262.843996,139.971245 246.069272,119.465049 Z" id="路径" fill="#F2F2F2"></path>
                    <path d="M128.515107,106.229508 C129.413942,109.470094 131.438889,112.290727 134.231677,114.192365 C135.311416,114.921875 136.588891,115.6217 136.958266,116.86504 C137.152573,117.657645 137.032844,118.494027 136.623789,119.201578 C136.215465,119.900067 135.718643,120.543765 135.145456,121.116951 L135.09313,121.311475 C132.413692,119.735784 129.864599,117.742631 128.384505,115.02318 C126.90441,112.303728 126.697791,108.739519 128.515122,106.229508" id="路径" fill="#F2F2F2"></path>
                    <path d="M215.072484,181.639344 C215.971319,184.87993 217.996266,187.700563 220.789054,189.602201 C221.868793,190.331711 223.146268,191.031536 223.515643,192.274876 C223.70995,193.067481 223.590221,193.903863 223.181166,194.611414 C222.772842,195.309903 222.27602,195.953601 221.702833,196.526787 L221.650507,196.721311 C218.971069,195.14562 216.421976,193.152467 214.941882,190.433016 C213.461788,187.713564 213.255168,184.149355 215.072499,181.639344" id="路径" fill="#F2F2F2"></path>
                    <path d="M42.6134674,176.393443 C43.5123023,179.634028 45.5372499,182.454661 48.330038,184.3563 C49.4097762,185.085809 50.6872516,185.785635 51.0566262,187.028974 C51.2509332,187.821579 51.1312047,188.657961 50.7221496,189.365512 C50.3138257,190.064002 49.8170036,190.7077 49.2438167,191.280885 L49.1914908,191.47541 C46.5120522,189.899718 43.9629592,187.906565 42.4828652,185.187114 C41.0027711,182.467663 40.7961516,178.903453 42.6134827,176.393443" id="路径" fill="#F2F2F2"></path>
                    <circle id="椭圆形" fill="#406BD4" cx="241.311475" cy="19.0163934" r="19.0163934"></circle>
                    <path d="M276.152178,4.12484308 C266.932451,2.87103277 256.406606,7.88472031 254.017003,16.9309496 C252.781323,13.6306198 249.566224,11.5130374 246.065464,11.6937729 C242.564704,11.8745083 239.581937,14.3120709 238.688525,17.7223204 L239.744051,18.4829027 C259.501692,22.7815375 279.953933,22.6885044 299.672131,18.2103019 C293.25894,11.4292768 285.371927,5.37863087 276.152178,4.12484308 Z" id="路径" fill="#F0F0F0"></path>
                    <path d="M236.152178,29.0428759 C226.932451,27.7890656 216.406606,32.8027531 214.017003,41.8489824 C212.781323,38.5486526 209.566224,36.4310702 206.065464,36.6118057 C202.564704,36.7925411 199.581937,39.2301037 198.688525,42.6403532 L199.744051,43.4009355 C219.501692,47.6995703 239.953933,47.6065372 259.672131,43.1283347 C253.25894,36.3473096 245.371927,30.2966637 236.152178,29.0428759 Z" id="路径" fill="#F0F0F0"></path>
                    <path d="M317.004947,34.0983607 C316.966828,34.0983607 316.928931,34.0924947 316.892631,34.0807471 C218.479697,2.66537514 131.742459,6.77349691 76.3082347,15.751781 C68.7642201,16.9731828 61.2000358,18.383885 53.825768,19.9450214 C51.9431253,20.3431022 49.9899688,20.7698039 48.0206401,21.2141109 C45.6687465,21.7428077 43.3481142,22.2872802 41.1228924,22.8317526 C40.1618648,23.0614308 39.2196061,23.2929411 38.2961164,23.5262836 C36.8972629,23.8748321 35.4778787,24.2380592 33.9563546,24.6372295 C32.2561807,25.0797068 30.5287391,25.5438283 28.820935,26.0167561 C28.8146895,26.0189764 28.808317,26.0208144 28.8018522,26.0222601 L28.8020345,26.0226358 C26.8730526,26.5542518 24.954243,27.1013091 23.0986818,27.647615 C22.0943894,27.9403945 21.1246262,28.2291427 20.1957531,28.5142204 C20.091983,28.5432057 20.0000229,28.5710864 19.9067898,28.5997073 L19.707237,28.6609765 C19.5916531,28.6965666 19.4775209,28.7314203 19.3633886,28.7644406 L19.3561195,28.7666422 L19.3562981,28.7670179 L19.0542481,28.8616944 C18.6940414,28.9717746 18.3425554,29.0792625 17.996887,29.1863972 C8.86119922,32.0291001 3.83900366,34.0514237 3.78938903,34.0712343 C3.66595874,34.1211754 3.52550927,34.1008547 3.42094657,34.017927 C3.31638386,33.9349993 3.26359349,33.8020632 3.28246107,33.6691944 C3.30132866,33.5363257 3.38898776,33.4237102 3.51241805,33.3737692 C3.56239744,33.3539547 8.60912488,31.3213595 17.7780727,28.4680168 C18.1250141,28.3605176 18.4774082,28.2530185 18.8387055,28.1425814 L19.1193092,28.0545247 C19.1289418,28.0508579 19.1385744,28.0479237 19.1483894,28.0449857 C19.2619782,28.0123336 19.375381,27.9774799 19.4906038,27.942258 L19.6905176,27.880985 C19.7901117,27.8505345 19.8882504,27.8204484 19.9887526,27.7925639 C20.9112646,27.5093197 21.8842995,27.2198425 22.8911341,26.9259585 C24.7474248,26.3792844 26.6680471,25.8322459 28.5984917,25.2998785 C28.6044879,25.2976769 28.6106665,25.2962117 28.6166664,25.2943783 L28.6166664,25.2940026 C30.3304704,24.8196057 32.0642655,24.3536509 33.7698922,23.9097083 C35.2937798,23.5101585 36.7158773,23.1461988 38.1171055,22.7969139 C39.0445231,22.5639371 39.9885994,22.3319384 40.9493342,22.1009178 C43.1771019,21.5557089 45.5024575,21.0105039 47.8585347,20.48071 C49.8309564,20.0360311 51.7873845,19.6082324 53.6731127,19.2097834 C61.0588295,17.6460772 68.6348313,16.2331658 76.1902911,15.0099381 C131.703932,6.01880508 218.565486,1.90406723 317.116898,33.3645683 C317.292011,33.4203509 317.40063,33.5967339 317.372681,33.7799257 C317.344732,33.9631176 317.188573,34.0983607 317.004947,34.0983607 L317.004947,34.0983607 Z" id="路径" fill="#CCCCCC"></path>
                    <path d="M97.5194696,156.127198 C97.3910205,155.749123 97.1748668,155.407337 96.888945,155.130203 C96.7833852,155.031642 96.6691772,154.942907 96.5477199,154.865085 C95.5796792,154.215358 94.1331816,154.069729 93.2133575,154.865085 C93.1207142,154.945966 93.0350971,155.034661 92.9574387,155.130203 C92.682975,155.470003 92.4010934,155.802335 92.1117939,156.127198 C91.637046,156.672372 91.1511711,157.198875 90.6430425,157.710441 C90.4983927,157.852336 90.353743,157.997964 90.2053842,158.139859 C90.120078,158.225742 90.0347717,158.307891 89.9494654,158.390041 C89.6230762,158.703702 89.2892691,159.006161 88.951753,159.304886 C88.7737225,159.465451 88.595692,159.622282 88.4139526,159.775378 C88.1431979,160.003156 87.8724432,160.230934 87.5979795,160.451244 C87.5720168,160.469914 87.546054,160.488585 87.5200912,160.510989 C87.5126733,160.514723 87.5089643,160.522191 87.5015464,160.525925 C87.4978374,160.525925 87.4941284,160.525925 87.4904195,160.533393 C87.4803836,160.537394 87.4714709,160.543804 87.4644567,160.552064 C87.3828594,160.608075 87.3272249,160.645415 87.2864262,160.679022 C87.3012621,160.671572 87.316098,160.660351 87.3309338,160.652883 C87.2641724,160.70516 87.193702,160.757437 87.1269406,160.809714 C86.4778711,161.291408 85.8139658,161.754432 85.1352246,162.187583 C83.4559409,163.269623 81.6920834,164.212466 79.8610718,165.006801 C79.7386758,165.055344 79.6125709,165.107621 79.486466,165.156164 C74.6924709,167.133521 69.4921036,167.905076 64.3353307,167.40407 C63.8086374,167.362995 63.2819639,167.306984 62.7553102,167.236037 C62.1470394,167.14642 61.5424776,167.038132 60.9416247,166.914908 C58.6541537,166.455422 56.4159641,165.77517 54.2580639,164.883577 C51.5587271,163.639104 48.991406,162.122818 46.5953355,160.357892 C46.2244387,160.092774 45.8498329,159.827655 45.4752271,159.570005 C45.9017585,158.516999 46.3208719,157.463993 46.7288584,156.403519 C46.9328516,155.891952 47.1294269,155.380386 47.3222933,154.865085 C48.8392613,150.895775 50.2635051,146.889125 51.6284054,142.867539 C53.0081416,138.793676 54.3099895,134.696163 55.533949,130.575002 C55.6600539,130.156787 55.7824499,129.738572 55.9011369,129.320357 C56.5427884,127.143398 57.1584771,124.96146 57.748203,122.774543 C57.8038376,122.561724 57.8631811,122.352617 57.9151066,122.139753 C58.0857043,121.51243 58.2526079,120.885107 58.4158173,120.257785 C58.7867142,118.842574 57.9484873,117.151044 56.472318,116.811244 C54.9950497,116.429913 53.4831728,117.294971 53.0526492,118.767893 C52.8931636,119.372812 52.733678,119.973996 52.5704834,120.578914 C51.7878911,123.502671 50.9645001,126.416485 50.1003105,129.320357 C49.9742056,129.738572 49.8481007,130.156787 49.7219958,130.575002 C47.8155861,136.900505 45.7224917,143.16253 43.4427125,149.361075 C43.1682488,150.111622 42.8900762,150.859679 42.6081946,151.605247 C42.4709628,151.971186 42.333731,152.337124 42.1927902,152.703062 C41.9220355,153.423736 41.6438629,154.144411 41.3656903,154.865085 C41.2061824,155.287034 41.0429878,155.708983 40.8798154,156.127198 C40.7722554,156.392317 40.6684042,156.657435 40.5645531,156.91882 C39.5070562,156.536543 38.4114226,156.27111 37.2969521,156.127198 L37.1189216,156.104794 C36.2548822,156.000141 35.3810684,156.007671 34.5189349,156.127198 C31.9067661,156.434049 29.5645414,157.892115 28.1246736,160.10771 C26.3554958,162.911992 26.3777496,166.922376 28.8590493,169.304708 C31.4145285,171.757988 35.2829823,171.739318 38.2909556,170.204618 C39.8849868,169.336385 41.2290635,168.068109 42.1927902,166.522831 C42.5620018,165.962677 42.9012372,165.383071 43.2090475,164.786492 C43.2869358,164.838768 43.3648242,164.891045 43.4427125,164.947056 C43.73943,165.156164 44.0361474,165.369005 44.3291559,165.578113 C46.0363954,166.823324 47.8355221,167.935569 49.7108688,168.905164 C53.7432356,170.923385 58.0838376,172.24498 62.5513169,172.814728 C62.6514591,172.82593 62.7478923,172.840867 62.8480344,172.852069 C63.3413272,172.915548 63.8383289,172.964091 64.3353307,173.005165 C71.4647635,173.546069 78.6029432,172.077225 84.9497762,168.763269 C85.4875766,168.483214 86.0204317,168.189468 86.5483415,167.88203 C87.3680235,167.40407 88.1691607,166.896237 88.951753,166.358532 C89.3782843,166.067275 89.7936888,165.772284 90.2053842,165.462357 C92.0044432,164.128315 93.6813947,162.634965 95.2162003,161.000151 C95.7984861,160.384031 96.3560677,159.747989 96.888945,159.092026 C97.392848,158.555438 97.6832541,157.85109 97.704918,157.112972 C97.7020274,156.775872 97.6392207,156.442016 97.5194696,156.127198 L97.5194696,156.127198 Z M36.1026643,165.021738 C36.1805527,164.965727 36.258441,164.905982 36.3326204,164.846237 C36.3103777,164.902248 36.2028028,164.965727 36.1026755,165.021738 L36.1026643,165.021738 Z M37.2932431,163.815635 C37.2079369,163.912721 37.1300485,164.009806 37.0447423,164.106892 C36.7852217,164.399292 36.506417,164.673745 36.2102244,164.928386 C36.1694258,164.965727 36.1249181,165.003067 36.0804105,165.036674 C36.0794195,165.036649 36.0784617,165.037034 36.0777607,165.03774 C36.0770597,165.038446 36.0766769,165.03941 36.0767015,165.040408 C36.0231236,165.064503 35.9710908,165.091939 35.9209063,165.122557 C35.7614207,165.219643 35.5982335,165.30926 35.4313448,165.39141 C35.1045554,165.512538 34.7683629,165.60621 34.4262144,165.671465 C34.1632997,165.690777 33.8994327,165.693271 33.6362041,165.678933 L33.6287862,165.678933 C33.4471241,165.638341 33.2676263,165.588489 33.0909858,165.52957 C33.0019706,165.484761 32.9166643,165.432507 32.831358,165.380208 C32.7979773,165.350335 32.768287,165.320463 32.7497607,165.301792 C32.7135259,165.268488 32.680041,165.232273 32.6496371,165.193505 C32.6496576,165.192508 32.6492733,165.191546 32.6485733,165.190841 C32.6478733,165.190137 32.646918,165.18975 32.6459282,165.18977 C32.605111,165.115089 32.5606034,165.040408 32.5198232,164.965727 C32.5177071,164.963788 32.5163847,164.961126 32.5161143,164.958259 C32.4864425,164.864907 32.4604798,164.767821 32.4382259,164.670736 C32.4301802,164.500273 32.4314184,164.329495 32.4419349,164.159169 C32.4917068,163.920589 32.5586448,163.68597 32.6422192,163.457165 C32.7173151,163.29492 32.8028014,163.137759 32.898138,162.986673 C32.9055559,162.971737 32.9426456,162.911992 32.9834443,162.844779 C32.9871532,162.841045 32.9871532,162.841045 32.9871532,162.83731 C33.0427878,162.773831 33.0984223,162.706618 33.1577658,162.646873 C33.2579079,162.534851 33.365468,162.437766 33.4730281,162.336946 C33.682209,162.199111 33.898906,162.0732 34.1220975,161.959806 C34.4761701,161.833176 34.8395148,161.734547 35.2088252,161.664815 C35.7534153,161.621253 36.3007646,161.626251 36.8444802,161.679751 C37.3594668,161.769711 37.8675926,161.89573 38.3651572,162.056891 C38.063593,162.646094 37.7202422,163.21265 37.337773,163.752156 C37.3229186,163.77456 37.3080901,163.796965 37.2932394,163.815635 L37.2932431,163.815635 Z M33.1688704,162.587128 C33.136196,162.639928 33.0976183,162.688783 33.0538924,162.732738 C33.083322,162.67771 33.1222567,162.628403 33.1688704,162.587128 L33.1688704,162.587128 Z" id="形状" fill="#646566"></path>
                    <path d="M86.557377,118.190737 C86.5250537,119.355008 86.4927159,120.519278 86.4603638,121.683549 C86.3920952,124.267933 86.3214312,126.853552 86.2483719,129.440408 C86.1729171,132.351085 86.0938693,135.260525 86.0112284,138.168729 C85.9717045,139.670433 85.9309829,141.17212 85.8890636,142.673789 C85.777678,146.719073 85.6674901,150.763121 85.5584999,154.805933 C85.5477206,155.224922 85.5333483,155.640203 85.5225691,156.059192 C85.4686728,158.065164 85.4147766,160.07112 85.3608803,162.077062 C85.2997979,164.25358 85.2399132,166.430099 85.1812261,168.606617 C85.1381091,170.238064 85.0937944,171.870762 85.0482821,173.504711 C84.7249189,185.343933 84.4015414,197.183155 84.0781496,209.022378 C84.0497636,210.545929 82.8597232,211.773986 81.3833371,211.803279 C79.9000099,211.79095 78.7004712,210.553091 78.6885246,209.022378 C78.8681788,202.363047 79.0502283,195.703716 79.2346733,189.044385 C79.396362,183.022808 79.5604461,177.00123 79.7269257,170.979653 C79.7808219,168.995943 79.8347182,167.010998 79.8886144,165.024817 C79.9712553,162.036275 80.0526986,159.047734 80.1329441,156.059192 C80.1437233,155.640203 80.1580957,155.224922 80.1688749,154.805933 C80.1760611,154.438854 80.1868403,154.075483 80.1976196,153.708404 C80.3557152,147.905591 80.5138109,142.101541 80.6719066,136.296256 C80.7365821,134.012209 80.7988622,131.726927 80.8587469,129.440408 C80.9306086,126.833777 81.0024702,124.228382 81.0743319,121.624223 C81.1066697,120.478492 81.1354323,119.336468 81.1677521,118.190737 C81.196138,116.667186 82.3861784,115.439129 83.8625646,115.409836 C85.3458902,115.422168 86.5454266,116.660025 86.557377,118.190737 Z" id="路径" fill="#646566"></path>
                    <path d="M239.937556,118.768293 C237.020636,129.890396 233.534383,140.853131 229.492766,151.612564 C228.377488,154.580386 227.236548,157.5423 226.016933,160.468457 L226.297351,159.799331 C225.752989,161.193107 225.057752,162.522231 224.224228,163.762637 C224.167519,163.842609 224.109801,163.921838 224.051076,164.000326 C224.339283,163.62923 224.394027,163.555903 224.215308,163.780347 C224.121083,163.892634 224.028044,164.005253 223.93061,164.114783 C223.671023,164.407404 223.392372,164.682293 223.096507,164.937626 C223.021984,165.001782 222.946337,165.064564 222.869564,165.125972 L223.2174,164.853705 C223.177031,164.94957 222.893702,165.076848 222.805459,165.131152 C222.519698,165.304781 222.221577,165.456895 221.913537,165.586248 L222.57803,165.303875 C222.073207,165.50864 221.546617,165.654099 221.008696,165.737369 L221.748185,165.63731 C221.219691,165.710842 220.684073,165.716615 220.154138,165.65449 L220.893623,165.754545 C220.460016,165.69443 220.035696,165.579357 219.630755,165.412064 L220.295245,165.694437 C220.079226,165.599632 219.871018,165.487717 219.67258,165.359747 C219.571938,165.293686 219.262646,165.057782 219.667065,165.368939 C220.087422,165.692353 219.721075,165.396703 219.634564,165.310736 C219.56251,165.239136 219.497474,165.161344 219.42696,165.088515 C219.099801,164.750688 219.796507,165.669881 219.574164,165.274725 C219.45531,165.076686 219.346586,164.872659 219.248419,164.663443 L219.528837,165.332569 C219.401217,165.014072 219.310611,164.681779 219.258826,164.342314 L219.358192,165.086958 C219.305101,164.66478 219.304707,164.23757 219.35702,163.815293 L219.257658,164.559937 C219.325691,164.088592 219.44957,163.627154 219.626645,163.185491 L219.346227,163.854617 C219.469671,163.557563 219.615737,163.270562 219.783118,162.996182 C219.860194,162.854359 219.95068,162.720356 220.053318,162.596036 C220.071547,162.601989 219.582783,163.161028 219.842142,162.87876 C219.909978,162.804934 219.973438,162.727157 220.042054,162.653925 C220.151901,162.53672 220.269612,162.429531 220.385357,162.318574 C220.772785,161.947178 219.843154,162.679355 220.290215,162.385453 C220.614272,162.170945 220.955317,161.983669 221.309896,161.825521 L220.645406,162.107894 C221.239274,161.862279 221.861887,161.694115 222.498106,161.607491 L221.758618,161.707546 C222.555351,161.615237 223.360483,161.624833 224.154823,161.736106 L223.415334,161.636051 C224.421265,161.789625 225.404425,162.068109 226.342348,162.465139 L225.677855,162.182766 C227.676843,163.046934 229.44728,164.329997 231.21456,165.588153 C232.92154,166.83284 234.720153,167.944853 236.594803,168.914549 C240.627391,170.933541 244.968221,172.255856 249.435991,172.826266 C262.456147,174.432326 275.393774,169.260922 283.775421,159.100173 C284.278662,158.562662 284.568562,157.857903 284.590164,157.119499 C284.584881,156.37767 284.292607,155.667138 283.775421,155.138824 C282.754892,154.195467 280.827088,153.929124 279.841497,155.138824 C278.90749,156.28712 277.903308,157.375673 276.834793,158.398151 C276.335975,158.874711 275.823855,159.33656 275.298432,159.783697 C274.998344,160.039127 274.694104,160.289509 274.385713,160.534843 C274.239804,160.650924 273.785373,160.959889 274.483292,160.461103 C274.323307,160.57544 274.169887,160.700264 274.012042,160.817694 C271.676174,162.551661 269.144915,164.001459 266.47097,165.136903 L267.13546,164.85453 C264.266156,166.066544 261.252607,166.89796 258.170511,167.327895 L258.909995,167.22784 C255.739383,167.647792 252.527499,167.643011 249.358133,167.213622 L250.097618,167.313677 C246.928932,166.875455 243.830015,166.025523 240.878306,164.785119 L241.5428,165.067496 C238.694412,163.798403 235.991273,162.221655 233.4809,160.364969 C232.174392,159.390788 230.796542,158.517568 229.359155,157.752789 C227.684603,156.891578 225.871491,156.336624 224.004247,156.11377 C220.503438,155.698924 216.936084,157.071977 215.011463,160.117603 C213.240233,162.9205 213.263091,166.931223 215.743493,169.314609 C218.298099,171.769304 222.166805,171.748549 225.177389,170.213078 C228.076819,168.7343 229.818341,165.662083 231.043077,162.7652 C233.799223,156.246061 236.239387,149.576275 238.512845,142.872555 C240.762072,136.240274 242.801809,129.540882 244.632057,122.774378 C244.858701,121.936337 245.082082,121.097416 245.3022,120.257614 C245.673465,118.842616 244.834525,117.150264 243.359349,116.811932 C241.881535,116.428859 240.368118,117.294139 239.937522,118.768327 L239.937556,118.768293 Z" id="路径" fill="#646566"></path>
                    <path d="M267.398126,118.190727 L266.428315,153.709423 L265.463555,189.043123 L264.918033,209.022387 C264.930652,210.552804 266.129606,211.790254 267.612412,211.803279 C269.088499,211.773836 270.278265,210.545869 270.306792,209.022387 L271.276607,173.503692 L272.241367,138.169992 L272.786885,118.190727 C272.774266,116.660311 271.575312,115.422861 270.092506,115.409836 C268.616419,115.439279 267.426653,116.667246 267.398126,118.190727 L267.398126,118.190727 Z" id="路径" fill="#646566"></path>
                    <path d="M170.99162,199.344262 L171.86054,199.344262 L171.86054,159.772307 L192.131148,159.772307 L192.131148,158.905458 L171.86054,158.905458 L171.86054,142.208034 L187.514668,142.208034 C187.28519,141.916115 187.049019,141.627908 186.806156,141.343413 L171.86054,141.343413 L171.86054,130.315051 C171.573132,130.192478 171.28349,130.07438 170.99162,129.962961 L170.99162,141.343413 L153.958358,141.343413 L153.958358,127.213115 C153.666485,127.226486 153.379074,127.246547 153.08942,127.271057 L153.08942,141.343439 L139.500681,141.343439 L139.500681,130.800841 C139.208808,130.930093 138.921397,131.066022 138.636206,131.208645 L138.636206,141.343413 L127.213115,141.343413 L127.213115,142.208034 L138.636206,142.208034 L138.636206,158.905458 L127.213115,158.905458 L127.213115,159.772307 L138.636206,159.772307 L138.636206,199.344262 L139.500681,199.344262 L139.500681,159.772307 C143.104858,159.771587 146.561623,161.203262 149.110161,163.752227 C151.6587,166.301192 153.090137,169.758538 153.08942,173.363321 L153.08942,199.344262 L153.958358,199.344262 L153.958358,159.772307 L170.99162,159.772307 L170.99162,199.344262 Z M139.500681,158.905458 L139.500681,142.208034 L153.08942,142.208034 L153.08942,158.905458 L139.500681,158.905458 Z M153.958358,158.905458 L153.958358,142.208034 L154.29924,142.208034 C158.726634,142.208324 162.972578,143.967676 166.103011,147.099051 C169.233443,150.230427 170.991934,154.477319 170.991635,158.905458 L153.958358,158.905458 Z" id="形状" fill="#000000" opacity="0.2"></path>
                    <path d="M166.049915,187.041097 C164.958989,191.912832 162.345857,196.309852 158.589697,199.594131 C158.314357,199.832527 158.039017,200.063473 157.752515,200.290694 C157.056724,200.354033 156.365894,200.418598 155.680026,200.484391 C155.110742,200.53654 154.5489,200.592414 153.990779,200.644563 L153.890318,200.655738 L153.819622,200.044848 L153.536841,197.571491 C151.314705,193.939633 150.86289,189.493226 152.308975,185.487799 C153.291268,182.835645 155.069813,180.49266 156.818593,178.1683 C159.233396,174.957405 161.581225,171.78376 161.666804,167.868852 C162.855008,169.391094 163.842909,171.059871 164.606241,172.834192 C163.885955,173.173655 163.238825,173.650678 162.701188,174.238474 C162.548635,174.406096 162.396082,174.640767 162.500265,174.841936 C162.589564,175.013283 162.812813,175.054257 163.006294,175.076585 C163.471395,175.125009 163.940217,175.173433 164.405318,175.221857 C164.777399,175.262831 165.149479,175.300081 165.52156,175.341055 C165.971703,176.820198 166.277007,178.339682 166.433158,179.878027 C166.683881,182.271001 166.554532,184.688626 166.049915,187.041097 L166.049915,187.041097 Z" id="路径" fill="#646566"></path>
                    <path d="M177.704918,177.081207 C175.523373,178.69343 174.247724,181.012175 173.256784,183.567679 C172.241167,183.89803 171.327549,184.491183 170.605652,185.288887 C170.454053,185.458001 170.302455,185.694761 170.405986,185.897721 C170.494726,186.070593 170.716578,186.111932 170.90885,186.134458 C171.371042,186.183313 171.836931,186.232169 172.299123,186.281024 C171.308184,189.302532 170.39859,192.429268 168.645959,194.981014 C167.480392,196.665744 165.961065,198.066188 164.197826,199.081096 C163.717081,199.359538 163.220768,199.609249 162.711417,199.828957 C160.833069,199.975522 158.990465,200.13211 157.183603,200.298719 C156.492164,200.362621 155.805655,200.427762 155.124077,200.49414 C154.558354,200.546753 154.000026,200.603124 153.445396,200.655738 C153.441699,200.449042 153.441699,200.242347 153.445396,200.035652 C153.562362,194.52955 155.555262,189.235249 159.084136,185.055885 C159.250525,184.860464 159.420611,184.668801 159.594395,184.477138 C161.382162,182.536311 163.484565,180.921924 165.80995,179.704358 C169.474026,177.768018 173.580765,176.862375 177.704918,177.081207 Z" id="路径" fill="#406BD4"></path>
                    <path d="M156.181774,198.39942 L155.7576,199.65704 L155.543669,200.296946 C154.979333,200.348731 154.422374,200.404214 153.869104,200.455998 L153.769515,200.467095 C153.157229,200.529976 152.548632,200.592857 151.940035,200.655738 C151.78143,200.470794 151.622826,200.282151 151.46791,200.089809 C143.453115,190.356873 144.783144,175.959621 154.444505,167.868852 C153.957627,170.42478 154.525651,172.873439 155.458834,175.303604 C155.359245,175.344292 155.263345,175.38498 155.171133,175.429366 C154.457107,175.766455 153.815601,176.240141 153.282637,176.823826 C153.13141,176.990276 152.980183,177.223305 153.08346,177.423067 C153.171983,177.593216 153.393291,177.633903 153.585092,177.656074 C154.04615,177.70416 154.510898,177.752245 154.971956,177.800331 C155.340803,177.841018 155.70965,177.878007 156.078497,177.918695 C156.251855,177.937189 156.425213,177.955684 156.598571,177.974178 C156.62439,178.029661 156.646521,178.081446 156.67234,178.136929 C157.723554,180.422838 158.855914,182.719843 159.494019,185.101923 C159.654017,185.699579 159.779632,186.305962 159.870243,186.918073 C160.445616,191.108531 159.088203,195.333841 156.181774,198.39942 Z" id="路径" fill="#406BD4"></path>
                    <path d="M193.692829,145.013425 C190.486902,138.754977 185.520058,133.489216 179.678495,129.619588 C173.818129,125.755295 167.093548,123.40199 160.104034,122.769393 C159.187816,122.68607 158.269347,122.63727 157.348626,122.622951 C156.260684,122.606702 139.895595,127.330849 134.413408,131.188435 C128.93426,134.998986 124.426972,140.045307 121.255299,145.920144 C118.08917,151.827148 116.531834,158.463925 116.739702,165.163909 C117.011101,171.904214 118.888363,178.481969 122.215022,184.348924 C125.496295,190.196873 130.155317,195.154092 135.786964,198.789526 C141.49883,202.436961 147.236515,212.108151 153.980488,212.449544 C160.77526,212.793546 168.524375,203.670616 174.7215,200.900666 C180.918696,198.107649 186.276254,193.737925 190.26021,188.227005 C194.131608,182.826354 196.636133,176.566406 197.558933,169.984175 C198.517378,163.244594 198.07067,156.293896 195.770941,149.852315 C195.180841,148.197134 194.486757,146.580952 193.692844,145.01344 C193.030112,143.707056 191.087514,143.226009 189.871462,144.010643 C188.570022,144.812703 188.128708,146.497104 188.86946,147.835073 C189.258661,148.602271 189.620557,149.382155 189.955148,150.174727 L189.673589,149.506997 C190.939743,152.553849 191.800699,155.753886 192.234384,159.025068 L192.134614,158.281982 C192.59595,161.830899 192.58767,165.425205 192.109987,168.971955 L192.209757,168.228866 C191.726978,171.775316 190.78111,175.242996 189.396395,178.543035 L189.677954,177.875309 C188.96564,179.559059 188.135412,181.190368 187.193465,182.757063 C186.716025,183.548586 186.20948,184.321515 185.67383,185.075849 C185.438576,185.406844 185.196086,185.732174 184.951741,186.056475 C184.632871,186.479694 185.386302,185.503683 185.056863,185.918796 C185.00075,185.989505 184.94496,186.060459 184.888604,186.130974 C184.719481,186.342581 184.547952,186.552243 184.374018,186.759961 C183.212923,188.146321 181.945854,189.44021 180.584272,190.629924 C180.2451,190.926176 179.900272,191.215782 179.549789,191.498744 C179.37524,191.639743 179.202709,191.786725 179.020683,191.917927 C179.027613,191.912932 179.608915,191.470892 179.264815,191.727477 C179.156632,191.808144 179.049376,191.890045 178.94097,191.970418 C178.218523,192.506062 177.476904,193.014425 176.716112,193.495506 C174.964553,194.599883 173.126924,195.561218 171.221067,196.370178 L171.888263,196.088394 C168.600715,197.473505 165.145385,198.419775 161.6112,198.902852 L162.353697,198.803002 C158.821283,199.280756 155.241129,199.287097 151.707047,198.821861 L152.44954,198.921707 C149.237548,198.490095 146.095731,197.640031 143.103975,196.393132 L143.771169,196.674919 C142.038289,195.942684 140.367446,195.071334 138.774994,194.069397 C137.986897,193.572463 137.219303,193.044791 136.472211,192.48638 C136.365629,192.406775 136.259971,192.325977 136.153806,192.245806 C135.812872,191.988315 136.398717,192.435752 136.403395,192.438816 C136.205181,192.296543 136.014385,192.144196 135.831756,191.982374 C135.47089,191.688294 135.115698,191.387426 134.766178,191.079769 C133.367528,189.847051 132.061435,188.512977 130.858484,187.088358 C130.557314,186.732109 130.262611,186.370523 129.974374,186.0036 C129.849529,185.844718 129.621894,185.52272 130.124914,186.200721 C130.058719,186.1115 129.990082,186.024009 129.923224,185.935273 C129.762701,185.72221 129.604346,185.507544 129.448157,185.291274 C128.901222,184.533947 128.381363,183.758003 127.888583,182.963442 C126.775005,181.164891 125.803146,179.282238 124.98183,177.332576 L125.263389,178.000305 C123.919441,174.800108 123.000419,171.437418 122.529807,167.998157 L122.629577,168.741247 C122.204989,165.570986 122.198925,162.358603 122.611542,159.18676 L122.511775,159.929849 C122.934803,156.858263 123.760528,153.855879 124.967615,151.000272 L124.686056,151.668001 C125.445491,149.880332 126.341307,148.153825 127.365565,146.503781 C127.878364,145.678057 128.421783,144.872442 128.995822,144.086934 C129.126232,143.908456 129.258118,143.731068 129.391478,143.554771 C129.512136,143.395293 129.843947,142.998207 129.277757,143.699535 C129.333267,143.630776 129.386692,143.560041 129.441398,143.49067 C129.756406,143.091245 130.079105,142.698059 130.409493,142.311112 C131.659941,140.846122 133.014447,139.473399 134.462446,138.20365 C134.828414,137.882703 135.200151,137.568509 135.577658,137.261069 C135.749187,137.121386 135.921868,136.983135 136.0957,136.846314 C136.165206,136.791628 136.235627,136.737959 136.304812,136.682855 C135.560964,137.275273 136.098129,136.844089 136.266987,136.717472 C137.045043,136.13399 137.84389,135.579743 138.663526,135.05473 C140.485556,133.888571 142.402301,132.877741 144.393521,132.032913 L143.726324,132.314697 C146.6162,131.100295 159.419699,128.233931 161.748386,128.546801 L161.005893,128.446951 C164.428588,128.925153 167.773914,129.850161 170.956433,131.198352 L170.289237,130.916569 C171.902017,131.601917 173.469335,132.389827 174.981587,133.275468 C175.737177,133.718745 176.477938,134.186176 177.203871,134.677759 C177.547353,134.910468 177.887244,135.148375 178.223543,135.39148 C178.391621,135.513022 178.558738,135.63587 178.724894,135.760024 C178.817209,135.828974 178.908809,135.898866 179.000975,135.967991 C179.387991,136.258324 178.467888,135.547548 178.87358,135.868647 C180.23139,136.936251 181.520927,138.08807 182.734589,139.317314 C183.330682,139.924815 183.906275,140.551591 184.461369,141.197641 C184.746031,141.529143 185.02489,141.865513 185.297946,142.206753 C185.433634,142.376312 185.895674,142.989795 185.329406,142.238272 C185.46781,142.421957 185.607755,142.604408 185.744397,142.789435 C186.921184,144.383647 187.966323,146.071101 188.869456,147.835073 C189.537238,149.138684 191.471342,149.624726 192.690838,148.837874 C193.9928,148.036192 194.434231,146.351316 193.692829,145.013425 L193.692829,145.013425 Z" id="路径" fill="#646566"></path>
                    <path d="M160.993813,190.070202 C160.401072,190.097211 159.854475,189.754138 159.62557,189.21142 C159.396665,188.668702 159.53424,188.042015 159.969949,187.642694 C160.005572,187.502328 160.031126,187.401532 160.066752,187.261162 C160.054007,187.230615 160.041187,187.200087 160.028292,187.169577 C158.727669,184.094997 150.428362,192.665848 150.069555,195.555435 C149.911528,196.832701 149.97819,198.127462 150.266577,199.382137 C147.578282,193.568506 146.18232,187.249788 146.173337,180.854391 C146.17277,179.249546 146.262709,177.645925 146.442733,176.051034 C146.591518,174.743542 146.797929,173.445368 147.061968,172.156513 C148.502837,165.163271 151.596449,158.608613 156.088744,153.030836 C158.657863,153.172988 160.909453,152.784994 161.126856,147.848793 C161.165525,146.97073 161.822465,146.210452 161.967213,145.345462 C161.72195,145.377354 161.472655,145.397281 161.227396,145.413214 C161.150985,145.417179 161.070575,145.421177 160.994172,145.425175 L160.965359,145.426457 C160.414736,145.450935 159.900884,145.15278 159.652773,144.664847 C159.404662,144.176915 159.468489,143.590055 159.815812,143.165771 C159.92171,143.036565 160.027674,142.907425 160.133707,142.778351 C160.294556,142.579029 160.459409,142.383706 160.620229,142.184414 C160.638792,142.16548 160.656245,142.145508 160.672503,142.124595 C160.85749,141.897376 161.042413,141.674158 161.2274,141.446943 C160.889776,140.927446 160.435677,140.492283 159.900513,140.175383 C158.046902,139.099118 155.489642,139.844522 154.150687,141.506762 C152.807732,143.168979 152.554437,145.500927 153.020821,147.57771 C153.479493,149.34487 154.238214,151.021744 155.26448,152.536498 C155.16394,152.66407 155.059393,152.787643 154.958879,152.915218 C153.121337,155.257687 151.519787,157.773052 150.177194,160.425248 C150.557042,157.483712 145.91204,146.86074 144.115703,144.610644 C141.958008,141.907932 137.533451,143.087462 137.153315,146.513568 C137.149637,146.546738 137.146044,146.5799 137.142536,146.613053 C137.409353,146.762282 137.670534,146.920669 137.926078,147.088215 C138.583147,147.523437 138.903347,148.313895 138.732416,149.078767 C138.561485,149.84364 137.934481,150.426053 137.153475,150.545417 L137.11441,150.551393 C133.542896,155.606843 144.99224,168.764904 147.858103,165.810518 C146.509193,169.600237 145.66308,173.547759 145.341045,177.5538 C145.158724,179.917254 145.169482,182.291454 145.373214,184.653189 L145.361138,184.569474 C144.724377,179.42561 133.800366,171.777683 130.610355,172.414728 C128.772689,172.781709 126.962673,172.698279 127.241716,174.535978 C127.246171,174.56531 127.2507,174.594644 127.255302,174.62398 C127.750428,174.823903 128.232511,175.05421 128.698749,175.313563 C128.965566,175.462822 129.226746,175.62121 129.482288,175.788726 C130.139359,176.223952 130.459561,177.014413 130.288632,177.77929 C130.117702,178.544168 129.490697,179.126587 128.709689,179.245957 L128.670579,179.251908 C128.642442,179.255906 128.618302,179.2599 128.590195,179.263902 C126.964478,184.809436 139.020743,193.75921 146.350235,190.911508 L146.354276,190.911508 C147.080633,194.040674 148.133053,197.086532 149.494576,200 L160.712689,200 C160.752924,199.876427 160.789096,199.748855 160.825302,199.625282 C159.786924,199.690002 158.744459,199.628434 157.721177,199.441953 C158.553506,198.429441 159.385802,197.408964 160.218131,196.396482 C160.236695,196.377561 160.254148,196.3576 160.270404,196.336696 C160.692584,195.818507 161.118801,195.304287 161.540981,194.786098 L161.541209,194.785457 C161.563713,193.197018 161.37985,191.612316 160.994154,190.070425 L160.993813,190.070202 Z M145.662711,187.224264 L145.566199,187.009043 C145.570232,186.853578 145.570232,186.698113 145.566199,186.538679 C145.566199,186.494789 145.558164,186.450966 145.558164,186.40711 C145.594336,186.68215 145.626505,186.95722 145.66671,187.23226 L145.662711,187.224264 Z" id="形状" fill="#646566"></path>
                    <circle id="椭圆形" fill="#646566" cx="35.4098361" cy="163.278689" r="3.93442623"></circle>
                    <circle id="椭圆形" fill="#646566" cx="84.5901639" cy="207.868852" r="3.93442623"></circle>
                    <circle id="椭圆形" fill="#646566" cx="270.819672" cy="207.868852" r="3.93442623"></circle>
                    <circle id="椭圆形" fill="#646566" cx="281.311475" cy="155.409836" r="3.93442623"></circle>
                    <circle id="椭圆形" fill="#646566" cx="268.852459" cy="117.377049" r="3.93442623"></circle>
                    <path d="M98.3606557,155.41927 C98.3557212,157.516173 96.7069542,159.240681 94.6123142,159.339794 C92.5176741,159.438907 90.713428,157.877788 90.5105113,155.79072 C90.3075946,153.703652 91.7773327,151.82424 93.8518381,151.518034 C95.9263434,151.211829 97.8764264,152.58646 98.2851888,154.643145 C98.3358824,154.898731 98.3611586,155.158706 98.3606557,155.41927 Z" id="路径" fill="#646566"></path>
                    <circle id="椭圆形" fill="#646566" cx="180.327869" cy="129.836066" r="3.93442623"></circle>
                    <path d="M139.672131,129.8455 C139.667197,131.942403 138.01843,133.66691 135.92379,133.766023 C133.82915,133.865137 132.024903,132.304018 131.821987,130.216949 C131.61907,128.129881 133.088808,126.250469 135.163313,125.944264 C137.237819,125.638058 139.187902,127.01269 139.596664,129.069374 C139.647358,129.324961 139.672634,129.584936 139.672131,129.8455 Z" id="路径" fill="#646566"></path>
                    <path d="M86.557377,117.386483 C86.5524425,119.483386 84.9036755,121.207894 82.8090355,121.307007 C80.7143954,121.40612 78.9101493,119.845001 78.7072326,117.757933 C78.5043159,115.670865 79.974054,113.791453 82.0485594,113.485247 C84.1230647,113.179042 86.0731477,114.553674 86.4819101,116.610358 C86.5326037,116.865944 86.5578799,117.125919 86.557377,117.386483 Z" id="路径" fill="#646566"></path>
                    <circle id="椭圆形" fill="#646566" cx="222.95082" cy="164.590164" r="3.93442623"></circle>
                    <circle id="椭圆形" fill="#646566" cx="158.688525" cy="125.245902" r="5.90163934"></circle>
                    <path d="M319.558302,212.309109 L0.44297798,212.459016 C0.284717208,212.459016 0.138478202,212.34832 0.0593478009,212.168626 C-0.0197826003,211.988931 -0.0197826003,211.767538 0.0593478009,211.587844 C0.138478202,211.408149 0.284717208,211.297453 0.44297798,211.297453 L319.558302,211.147541 C319.802452,211.148469 320,211.408223 320,211.728325 C320,212.048427 319.802452,212.308181 319.558302,212.309109 L319.558302,212.309109 Z" id="路径" fill="#CACACA"></path>
                </g>
            </g>
        </g>
    </g>
</svg>