<?xml version="1.0" encoding="UTF-8"?>
<svg width="30px" height="30px" viewBox="0 0 30 30" version="1.1" xmlns="http://www.w3.org/2000/svg" xmlns:xlink="http://www.w3.org/1999/xlink">
    <title>编辑</title>
    <g id="编辑" stroke="none" stroke-width="1" fill="none" fill-rule="evenodd">
        <rect id="矩形" x="0" y="0" width="30" height="30" rx="2"></rect>
        <g id="0.图标/一般图标/edit" transform="translate(8.000000, 6.000000)" fill="#425792">
            <path d="M0.5,15.6923077 L10.9545455,15.6923077 C11.2306878,15.6923077 11.4545455,15.9161653 11.4545455,16.1923077 L11.4545455,16.5 C11.4545455,16.7761424 11.2306878,17 10.9545455,17 L0.5,17 C0.223857625,17 -2.9924922e-16,16.7761424 0,16.5 L0,16.1923077 C-3.38176876e-17,15.9161653 0.223857625,15.6923077 0.5,15.6923077 Z M7.354,2.643 L11.536,6.715 L4.36717664,14.0820767 C4.21029735,14.2432659 4.00466995,14.3459027 3.78428454,14.3756375 L3.65055425,14.3846154 L0.5,14.3846154 C0.223857625,14.3846154 1.01487248e-15,14.1607578 0,13.8846154 L0,13.8846154 L0,10.6062987 C-1.25315038e-15,10.3457742 0.101671839,10.095535 0.283377611,9.90883729 L0.283377611,9.90883729 L7.354,2.643 Z M9.54545455,0.392307692 C10.0545455,-0.130769231 10.8181818,-0.130769231 11.3272727,0.392307692 L11.3272727,0.392307692 L13.6181818,2.74615385 C14.1272727,3.26923077 14.1272727,4.05384615 13.6181818,4.57692308 L13.6181818,4.57692308 L12.444,5.782 L8.262,1.71 Z" id="形状结合"></path>
        </g>
    </g>
</svg>