<?xml version="1.0" encoding="UTF-8"?>
<svg width="102px" height="28px" viewBox="0 0 102 28" version="1.1" xmlns="http://www.w3.org/2000/svg" xmlns:xlink="http://www.w3.org/1999/xlink">
    <title>Ency（logo+反白+文字1）</title>
    <g id="logo" stroke="none" stroke-width="1" fill="none" fill-rule="evenodd">
        <g id="Ency-确定" transform="translate(-24.000000, -317.000000)">
            <g id="Ency（logo+反白+文字1）" transform="translate(24.000000, 317.000000)">
                <g id="编组-9备份">
                    <g id="编组-8" transform="translate(8.000000, 0.000000)">
                        <path d="M0,8 L0.00374586194,7.7554182 C0.135785073,3.45029393 3.74185446,0 8.17100936,0 L29.8001518,1.24344979e-14 C29.8001518,4.418278 26.1418663,8 21.6291424,8 L0,8 Z" id="形状结合备份" fill="#87E7F2"></path>
                        <path d="M4,8 L4.00377098,7.7554182 C4.13669569,3.45029393 7.76694839,0 12.2258065,0 L34,1.24344979e-14 C34,4.418278 30.317181,8 25.7741935,8 L4,8 Z" id="形状结合备份-2" fill="#9AFFA9"></path>
                        <path d="M2.20161902,8 L2.20536489,7.7554182 C2.3374041,3.45029393 5.94347348,0 10.3726284,0 L32.0017708,1.24344979e-14 C32.0017708,4.418278 28.3434853,8 23.8307614,8 L2.20161902,8 Z" id="形状结合" fill="#FFFFFF"></path>
                    </g>
                    <g id="编组-8备份" transform="translate(3.203390, 10.000000)">
                        <path d="M28.6569672,0 C28.6569672,4.418278 25.0129263,8 20.5177741,8 L20.278,7.996 L20.2783861,8 L4,8 L4.00373128,7.7554182 C4.13525635,3.45029393 7.72728441,0 12.139193,0 L28.6569672,0 Z" id="形状结合备份-4" fill="#9AFFA9"></path>
                        <path d="M24.6569672,0 C24.6569672,4.418278 21.0129263,8 16.5177741,8 L16.278,7.996 L16.2783861,8 L0,8 L0.00373127628,7.7554182 C0.135256352,3.45029393 3.72728441,0 8.13919304,0 L24.6569672,0 Z" id="形状结合备份-3" fill="#87E7F2"></path>
                        <path d="M26.6569672,0 C26.6569672,4.418278 23.0129263,8 18.5177741,8 L18.278,7.996 L18.2783861,8 L2,8 L2.00373128,7.7554182 C2.13525635,3.45029393 5.72728441,0 10.139193,0 L26.6569672,0 Z" id="形状结合" fill="#FFFFFF"></path>
                    </g>
                    <g id="编组-8备份-3" transform="translate(0.000000, 20.000000)">
                        <path d="M0,8 L0.00374586194,7.7554182 C0.135785073,3.45029393 3.74185446,0 8.17100936,0 L29.8001518,1.24344979e-14 C29.8001518,4.418278 26.1418663,8 21.6291424,8 L0,8 Z" id="形状结合备份" fill="#87E7F2"></path>
                        <path d="M4,8 L4.00377098,7.7554182 C4.13669569,3.45029393 7.76694839,0 12.2258065,0 L34,1.24344979e-14 C34,4.418278 30.317181,8 25.7741935,8 L4,8 Z" id="形状结合备份-2" fill="#9AFFA9"></path>
                        <path d="M2.20161902,8 L2.20536489,7.7554182 C2.3374041,3.45029393 5.94347348,0 10.3726284,0 L32.0017708,1.24344979e-14 C32.0017708,4.418278 28.3434853,8 23.8307614,8 L2.20161902,8 Z" id="形状结合" fill="#FFFFFF"></path>
                    </g>
                </g>
                <g id="文本备份-3" transform="translate(51.000000, 5.166016)" fill="#FFFFFF" fill-rule="nonzero">
                    <path d="M11.9990234,15.8339844 L11.9990234,12.9873047 L3.23339844,12.9873047 L3.23339844,8.91601562 L10.9248047,8.91601562 L10.9248047,6.16601562 L3.23339844,6.16601562 L3.23339844,2.80371094 L11.6123047,2.80371094 L11.6123047,0 L0,0 L0,15.8339844 L11.9990234,15.8339844 Z M17.4023438,15.8339844 L17.4023438,9.49609375 C17.4023438,8.77278646 17.5026042,8.17838542 17.703125,7.71289062 C18.0898438,6.83203125 18.8024089,6.39160156 19.8408203,6.39160156 C20.6858724,6.39160156 21.2587891,6.69238281 21.5595703,7.29394531 C21.7242839,7.6233724 21.8066406,8.09602865 21.8066406,8.71191406 L21.8066406,15.8339844 L24.9433594,15.8339844 L24.9433594,7.94921875 C24.9433594,6.48111979 24.558431,5.43017578 23.7885742,4.79638672 C23.0187174,4.16259766 22.0286458,3.84570312 20.8183594,3.84570312 C19.8515625,3.84570312 19.0530599,4.08203125 18.4228516,4.5546875 C18.0719401,4.81966146 17.6995443,5.25292969 17.3056641,5.85449219 L17.3056641,4.14648438 L14.3515625,4.14648438 L14.3515625,15.8339844 L17.4023438,15.8339844 Z M32.5917969,16.2421875 C34.4752604,16.2421875 35.8968099,15.5725911 36.8564453,14.2333984 C37.4580078,13.4026693 37.7945964,12.5218099 37.8662109,11.5908203 L34.7402344,11.5908203 C34.6757812,12.2067057 34.4931641,12.7080078 34.1923828,13.0947266 C33.8916016,13.4814453 33.383138,13.6748047 32.6669922,13.6748047 C31.6572266,13.6748047 30.9697266,13.1878255 30.6044922,12.2138672 C30.4039714,11.6910807 30.3037109,11 30.3037109,10.140625 C30.3037109,9.23828125 30.4039714,8.51497396 30.6044922,7.97070312 C30.9840495,6.94661458 31.6894531,6.43457031 32.7207031,6.43457031 C33.4440104,6.43457031 33.9775391,6.67089844 34.3212891,7.14355469 C34.5576172,7.49446615 34.7044271,7.88834635 34.7617188,8.32519531 L37.8984375,8.32519531 C37.7265625,6.65657552 37.1733398,5.49283854 36.2387695,4.83398438 C35.3041992,4.17513021 34.1028646,3.84570312 32.6347656,3.84570312 C30.9088542,3.84570312 29.5553385,4.40429688 28.5742188,5.52148438 C27.593099,6.63867188 27.1025391,8.20345052 27.1025391,10.2158203 C27.1025391,11.9990234 27.5465495,13.4492188 28.4345703,14.5664062 C29.3225911,15.6835938 30.7083333,16.2421875 32.5917969,16.2421875 Z M41.8730469,20.5712891 C43.2265625,20.5712891 44.1289062,20.3045247 44.5800781,19.7709961 C45.03125,19.2374674 45.6435547,17.8606771 46.4169922,15.640625 L50.4345703,4.125 L47.1796875,4.125 L44.7626953,12.7617188 L42.2060547,4.125 L38.8007812,4.125 L43.0976562,16.3496094 C43.1263021,16.4355469 43.0636393,16.671875 42.909668,17.0585938 C42.7556966,17.4453125 42.5891927,17.6995443 42.4101562,17.8212891 C42.2239583,17.9501953 41.9947917,18.0325521 41.7226562,18.0683594 C41.4505208,18.1041667 41.1640625,18.1149089 40.8632812,18.1005859 L40.4765625,18.0791016 L40.4765625,20.5283203 C40.8059896,20.5498047 41.0530599,20.5623372 41.2177734,20.565918 C41.382487,20.5694987 41.6009115,20.5712891 41.8730469,20.5712891 Z" id="Ency"></path>
                </g>
            </g>
        </g>
    </g>
</svg>